<svg data-name="Capa 2" xmlns="http://www.w3.org/2000/svg" viewBox="0 0 127.76 30.48"><path d="m7.51 29.6-.28.76H5.62l2.13-5.33h1.37l2.13 5.33H9.64l-.27-.76H7.52Zm1.45-1.14-.5-1.42-.53 1.42h1.03ZM14.74 28.82h-.11v1.54h-1.48v-5.33h2.46c.87 0 1.46.25 1.77.76.23.3.35.66.35 1.08v.09c0 .86-.46 1.44-1.37 1.74.73.94 1.22 1.49 1.48 1.65h-1.79c-.25-.16-.68-.67-1.3-1.54Zm-.11-2.54v1.28h.69c.48 0 .75-.06.82-.17.08-.13.12-.26.12-.41 0-.47-.3-.7-.9-.7h-.74ZM19.87 25.03h2.55c.72 0 1.22.17 1.5.52.18.23.27.5.27.84 0 .45-.19.8-.57 1.04v.02c.54.22.8.64.8 1.26v.09c0 .7-.36 1.19-1.07 1.48-.19.06-.37.09-.54.09h-2.95v-5.33Zm1.47 1.13v.96h1.01c.3 0 .45-.18.45-.53 0-.24-.13-.38-.38-.41-.06-.01-.15-.02-.27-.02h-.8Zm0 2.02v1h1.12c.23 0 .38-.1.46-.3.03-.1.04-.18.04-.25 0-.3-.2-.45-.59-.45h-1.04ZM26.53 30.36v-5.33h1.52v5.33h-1.52ZM34.09 25.03v1.26h-1.14v4.06h-1.52v-4.06h-1.14v-1.26h3.81ZM37.91 28.82h-.11v1.54h-1.48v-5.33h2.46c.87 0 1.46.25 1.77.76.23.3.35.66.35 1.08v.09c0 .86-.46 1.44-1.37 1.74.73.94 1.22 1.49 1.48 1.65h-1.79c-.25-.16-.68-.67-1.3-1.54Zm-.11-2.54v1.28h.69c.48 0 .75-.06.82-.17.08-.13.12-.26.12-.41 0-.47-.3-.7-.9-.7h-.74ZM44.27 29.6l-.28.76h-1.61l2.13-5.33h1.37l2.13 5.33H46.4l-.27-.76h-1.85Zm1.45-1.14-.5-1.42-.53 1.42h1.03ZM49.47 27.7h1.48v.06c0 .62.12 1 .37 1.14.15.13.37.2.64.2.44 0 .74-.21.9-.62.03-.15.05-.28.05-.38v-3.06h1.49v2.88c0 1.03-.32 1.75-.96 2.15-.4.28-.91.43-1.54.43-1.14 0-1.89-.47-2.25-1.4-.11-.31-.17-.65-.17-1.04v-.35ZM60.45 25.03v1.26h-2.34v.81h2.15v1.14h-2.15v.84h2.34v1.28h-3.81v-5.33h3.81ZM66.04 25.05h2.47c.87 0 1.49.19 1.86.58.51.48.76 1.18.76 2.09 0 1.2-.45 2-1.35 2.4-.38.16-.79.24-1.23.24h-2.5v-5.31Zm1.52 1.15v2.83h.65c.58 0 .96-.21 1.15-.62.11-.21.17-.45.17-.72v-.18c0-.58-.25-.98-.76-1.22-.2-.07-.39-.1-.58-.1h-.62ZM77.02 25.03v1.26h-2.34v.81h2.15v1.14h-2.15v.84h2.34v1.28h-3.81v-5.33h3.81ZM81.71 25.03c.87 0 1.46.25 1.77.76.23.3.35.66.35 1.08v.09c0 .89-.48 1.47-1.45 1.77-.27.06-.56.09-.87.09h-.78v1.54h-1.48v-5.33h2.46Zm-.98 1.25v1.28h.69c.48 0 .75-.06.82-.17.08-.13.12-.26.12-.41 0-.47-.3-.7-.9-.7h-.74ZM88.68 30.44c-.79 0-1.46-.27-2.02-.81s-.84-1.2-.84-1.96.28-1.42.84-1.96c.56-.54 1.23-.81 2.02-.81s1.46.27 2.02.81.84 1.2.84 1.96-.28 1.42-.84 1.96-1.23.81-2.02.81Zm-1.35-2.8v.02c0 .49.21.9.64 1.2.21.13.43.2.65.2h.12c.56 0 .96-.31 1.22-.94.04-.17.06-.31.06-.44v-.08c0-.54-.26-.95-.78-1.25a1.38 1.38 0 0 0-.59-.14c-.53 0-.92.26-1.19.78-.09.18-.14.4-.14.65ZM95.25 28.82h-.11v1.54h-1.48v-5.33h2.46c.87 0 1.46.25 1.77.76.23.3.35.66.35 1.08v.09c0 .86-.46 1.44-1.37 1.74.73.94 1.22 1.49 1.48 1.65h-1.79c-.25-.16-.68-.67-1.3-1.54Zm-.11-2.54v1.28h.69c.48 0 .75-.06.82-.17.08-.13.12-.26.12-.41 0-.47-.3-.7-.9-.7h-.74ZM103.86 25.03v1.26h-1.14v4.06h-1.52v-4.06h-1.14v-1.26h3.81ZM106.09 30.36v-5.33h1.52v5.33h-1.52ZM109.51 25.03h1.61l1.23 3.32 1.18-3.32h1.61l-2.13 5.33h-1.37l-2.13-5.33ZM119.29 30.44c-.79 0-1.46-.27-2.02-.81s-.84-1.2-.84-1.96.28-1.42.84-1.96c.56-.54 1.23-.81 2.02-.81s1.46.27 2.02.81.84 1.2.84 1.96-.28 1.42-.84 1.96-1.23.81-2.02.81Zm-1.35-2.8v.02c0 .49.21.9.64 1.2.21.13.43.2.65.2h.12c.56 0 .96-.31 1.22-.94.04-.17.06-.31.06-.44v-.08c0-.54-.26-.95-.78-1.25a1.38 1.38 0 0 0-.59-.14c-.53 0-.92.26-1.19.78-.09.18-.14.4-.14.65Z" style="fill:#fff"/><path d="M127.76.36h-2.91l-3.43 5.94c-.11-.01-.22-.02-.34-.02-.13 0-.26 0-.39.03L117.26.36h-2.91l4.22 7.32a2.964 2.964 0 0 0 1.25 4.25v7.08h2.52v-7.08a2.96 2.96 0 0 0 1.22-4.29l4.2-7.27ZM100.03 16.48h9.82V19H97.5V.36h12.35v2.52h-9.82v13.6Zm0-9.55 2.19 2.52h6.37V6.93h-8.56ZM92.88 13.29c0 1.18-.69 2.2-1.7 2.68V19h-2.52v-3.03c-1-.47-1.7-1.49-1.7-2.68 0-.29.04-.56.12-.82l-5.76-7.85V19H78.8V.36h2.52l7.35 10v-10h2.52v10.25c1 .47 1.7 1.5 1.7 2.68ZM63.88 0c-5.36 0-9.7 4.34-9.7 9.7s4.34 9.7 9.7 9.7 9.7-4.34 9.7-9.7S69.24 0 63.88 0Zm0 16.86c-3.94 0-7.13-3.19-7.13-7.13s3.19-7.13 7.13-7.13 7.13 3.19 7.13 7.13-3.19 7.13-7.13 7.13Z" style="fill:#f39d2f"/><path d="M66.85 9.74a2.96 2.96 0 1 1-5.92 0 2.96 2.96 0 0 1 5.92 0ZM48.97.36V19h-2.52V5.41l-3.15 5.45c.35.48.55 1.08.55 1.71 0 1.63-1.32 2.96-2.96 2.96s-2.96-1.32-2.96-2.96c0-.64.2-1.23.55-1.71l-3.15-5.45v13.6h-2.52V.36h2.52l5.34 9.25h.44L46.45.36h2.52ZM19.45 8.48h5.63V11h-5.63zM4.95.36 2.72 2.88H0V.36h4.95Zm0 0V19h2.52V2.88h4.91V.36H4.95Z" style="fill:#f39d2f"/></svg>